<svg xmlns="http://www.w3.org/2000/svg" viewBox="0 0 24 24" fill="currentColor"><path d="M20.16 12.594l-4.995 1.433c-.96.276-1.94-.8-1.567-1.674l2.735-6.42c.376-.882 1.653-.727 1.844.222l1.983 6.66c.117.586-.416 1.096-1 .78zM16.116 17.14l-4.023-3.187c-.728-.577-.316-1.756.62-1.756h5.39c.935 0 1.325 1.176.564 1.7l-1.95 1.243c-.39.282-.886.282-1.276 0h.675zM12.674 19.8l-1.96-4.755c-.38-.87.556-1.757 1.468-1.392l5.368 2.152c.91.364.863 1.662-.069 1.956l-3.408 1.003c-.498.117-.997-.07-1.399-.963zM7.89 17.453l2.235-4.532c.45-.91-.27-1.933-1.24-1.766L3.46 12.148c-.97.167-1.12 1.47-.222 1.886l3.313 1.42c.518.222 1.06.22 1.339 0zM9.23 8.627l.875 5.16c.162.95-1.01 1.548-1.72.878L3.91 10.45c-.71-.67-.21-1.84.723-1.693l4.476.72c.555.09.989.543 1.12 1.15z"/></svg>
